# xmcd
#
# Track frame offsets: 
#        150
#        19749
#        36605
#        51444
#        66024
#        79223
#        95175
#        108384
#        122487
#        137991
#        149236
#        173044
#        188202
#        207498
#        226906
#        246084
#        267760
#        281423
#        297313
#        313521
#        330744
#
# Disc length: 4633 seconds
#
# Revision: 0
# Processed by: cddbd v1.5.2PL0 Copyright (c) Steve Scherf et al.
# Submitted via: ExactAudioCopy v1.0b4
#
DISCID=4b121715
DTITLE=Luther Ingram - Let's Steal Away To The Hideaway – Do You Love 
DTITLE=Somebody
DYEAR=2009
DGENRE=Soul
TTITLE0=Let's Steal Away To The Hideaway
TTITLE1=That's The Way Love Is
TTITLE2=Sweet Inspiration
TTITLE3=I'm Gonna Be The Best Thing
TTITLE4=I Like The Feeling
TTITLE5=All That Shines
TTITLE6=What Goes Around Comes Around
TTITLE7=It's Too Much
TTITLE8=Your Love Is Something Special
TTITLE9=I've Got Your Love In My Life
TTITLE10=I'll Love You Until The End (Version 2)
TTITLE11=Do You Love Somebody
TTITLE12=How I Miss My Baby
TTITLE13=Get To Me
TTITLE14=Sorry
TTITLE15=Time Machine
TTITLE16=Do You Think There's A Chance
TTITLE17=Trying To Find My Love
TTITLE18=Ain't Good For Nothing
TTITLE19=Funny People
TTITLE20=Faces
EXTD=
EXTT0=
EXTT1=
EXTT2=
EXTT3=
EXTT4=
EXTT5=
EXTT6=
EXTT7=
EXTT8=
EXTT9=
EXTT10=
EXTT11=
EXTT12=
EXTT13=
EXTT14=
EXTT15=
EXTT16=
EXTT17=
EXTT18=
EXTT19=
EXTT20=
PLAYORDER=
